<svg width="254" height="46" viewBox="0 0 254 46" fill="none" xmlns="http://www.w3.org/2000/svg">
<path d="M22.8845 0C24.6477 0 26.3153 0.115033 27.8869 0.345013C29.4585 0.536677 30.8196 0.958612 31.9696 1.61027C33.1578 2.22359 34.0972 3.10506 34.7871 4.25496C35.477 5.36655 35.8221 6.84233 35.8222 8.68213C35.8222 10.9438 35.1893 13.0331 33.9243 14.9498C32.6593 16.8663 30.5704 18.3229 27.6573 19.3195L34.3267 36.5122H21.5044L16.4446 20.5848H15.812L12.4199 36.5122H0L4.70501 14.3782L21.2602 11.0679L7.7625 0H22.8845Z" fill="white"/>
<path d="M47.7732 24.5539C47.6224 25.3837 47.5092 26.1758 47.4338 26.9301C47.3961 27.6845 47.3772 28.3634 47.3772 28.9669C47.3772 29.3064 47.3961 29.6836 47.4338 30.0985C47.4715 30.5134 47.5469 30.9094 47.6601 31.2866C47.811 31.6261 47.9996 31.9278 48.2259 32.1918C48.4899 32.4181 48.8482 32.5313 49.3008 32.5313C49.6403 32.5313 50.0175 32.4181 50.4324 32.1918C50.885 31.9655 51.3188 31.6449 51.7337 31.23C52.1863 30.8151 52.6012 30.3059 52.9784 29.7024C53.3933 29.0989 53.7139 28.42 53.9402 27.6656H63.2189L61.7479 33.7194C60.9935 34.2098 60.126 34.6247 59.1453 34.9641C58.1646 35.3036 57.1274 35.5865 56.0335 35.8128C54.9397 36.0014 53.827 36.1334 52.6955 36.2088C51.5639 36.322 50.489 36.3786 49.4706 36.3786C47.5847 36.3786 45.8308 36.2088 44.2089 35.8694C42.587 35.5299 41.1726 34.9453 39.9656 34.1155C38.7586 33.2857 37.7968 32.1918 37.0801 30.834C36.4012 29.4384 36.0617 27.7222 36.0617 25.6854C36.0617 23.8372 36.3446 22.0268 36.9104 20.254C37.5139 18.4812 38.4946 16.9159 39.8524 15.5581C41.248 14.1625 43.0962 13.0498 45.397 12.22C47.7355 11.3902 50.6398 10.9753 54.1099 10.9753C57.8817 10.9753 60.7106 11.5599 62.5965 12.7292C64.5201 13.8985 65.482 15.7278 65.482 18.2172C65.482 19.2356 65.3311 20.3483 65.0294 21.5553C64.7276 22.7245 64.275 23.7241 63.6715 24.5539H47.7732ZM55.298 17.8212C55.298 16.6519 55.1094 15.8598 54.7323 15.4449C54.3551 15.03 53.9025 14.8226 53.3744 14.8226C52.7709 14.8226 52.2051 15.03 51.6771 15.4449C51.1867 15.8221 50.7341 16.3502 50.3192 17.0291C49.9043 17.6703 49.5271 18.4247 49.1877 19.2922C48.8482 20.122 48.5653 21.0084 48.339 21.9513H54.7888C54.8643 21.4987 54.9397 21.0272 55.0152 20.5369C55.0906 20.122 55.1472 19.6694 55.1849 19.179C55.2603 18.6887 55.298 18.2361 55.298 17.8212Z" fill="white"/>
<path d="M75.3194 45.4309H63.7776L70.9063 11.5977H80.1284L81.1468 15.2186H81.4863C82.8442 13.7853 84.3529 12.7669 86.0125 12.1634C87.7098 11.5222 89.3694 11.2016 90.9913 11.2016C92.3114 11.2016 93.4053 11.4091 94.2728 11.824C95.178 12.2012 95.8947 12.7292 96.4227 13.4081C96.9508 14.0871 97.328 14.898 97.5543 15.841C97.7806 16.7839 97.8937 17.7835 97.8937 18.8396C97.8937 19.3676 97.856 20.1597 97.7806 21.2158C97.7052 22.2719 97.5354 23.4601 97.2714 24.7802C97.0074 26.0626 96.6302 27.4016 96.1398 28.7972C95.6495 30.155 94.9894 31.3997 94.1596 32.5313C93.3675 33.6628 92.3492 34.5869 91.1045 35.3036C89.8975 36.0202 88.4453 36.3786 86.748 36.3786C85.805 36.3786 84.8809 36.2654 83.9757 36.0391C83.1082 35.8128 82.3161 35.511 81.5995 35.1339C80.8828 34.7567 80.2416 34.3229 79.6758 33.8326C79.1478 33.3045 78.7517 32.7765 78.4877 32.2484H78.1482L75.3194 45.4309ZM81.3166 30.8906C82.2218 30.8906 82.9762 30.4191 83.5797 29.4761C84.1832 28.4954 84.6735 27.3639 85.0507 26.0815C85.4279 24.7613 85.6919 23.4601 85.8428 22.1776C86.0313 20.8575 86.1256 19.8768 86.1256 19.2356C86.1256 18.4812 85.9936 17.8589 85.7296 17.3686C85.5033 16.8782 85.0695 16.633 84.4283 16.633C83.7117 16.633 83.0327 16.8971 82.3915 17.4251C81.7503 17.9155 81.2788 18.3492 80.9771 18.7264L78.7706 29.0801C79.0723 29.495 79.4306 29.9099 79.8456 30.3248C80.2605 30.702 80.7508 30.8906 81.3166 30.8906Z" fill="white"/>
<path d="M104.003 11.5977H113.225L114.074 15.841H114.47C115.338 14.4831 116.45 13.3327 117.808 12.3897C119.166 11.4468 120.958 10.9753 123.183 10.9753C123.334 10.9753 123.56 10.9942 123.862 11.0319C124.201 11.0319 124.56 11.0885 124.937 11.2016C125.352 11.2771 125.767 11.4091 126.182 11.5977C126.634 11.7485 127.068 11.9748 127.483 12.2766L124.993 23.9315H118.826C118.751 21.593 118.544 19.9711 118.204 19.0659C117.865 18.1229 117.318 17.6514 116.563 17.6514C116.186 17.6514 115.771 17.7457 115.319 17.9343C114.904 18.0852 114.47 18.4435 114.017 19.0093L110.396 35.9259H98.8547L104.003 11.5977Z" fill="white"/>
<path d="M130.843 13.691C132.767 12.7481 134.728 12.0691 136.727 11.6542C138.764 11.2016 141.027 10.9753 143.517 10.9753C145.931 10.9753 147.93 11.1639 149.514 11.5411C151.098 11.9183 152.362 12.4652 153.305 13.1818C154.248 13.8985 154.908 14.7471 155.285 15.7278C155.662 16.7085 155.851 17.8212 155.851 19.0659C155.851 19.7825 155.794 20.5557 155.681 21.3856C155.605 22.2154 155.511 22.9131 155.398 23.4789L152.739 35.9259H143.63L142.612 32.305H142.272C141.065 33.6251 139.651 34.6435 138.029 35.3602C136.445 36.0391 134.86 36.3786 133.276 36.3786C132.371 36.3786 131.485 36.2465 130.617 35.9825C129.75 35.7185 128.976 35.3224 128.297 34.7944C127.619 34.2286 127.072 33.5308 126.657 32.701C126.242 31.8335 126.034 30.7963 126.034 29.5893C126.034 27.6279 126.562 26.0815 127.619 24.9499C128.712 23.7807 130.127 22.9131 131.862 22.3474C133.635 21.7439 135.615 21.3667 137.802 21.2158C140.028 21.0649 142.253 20.9895 144.479 20.9895C144.554 20.6123 144.648 20.0843 144.761 19.4053C144.875 18.6887 144.931 18.0663 144.931 17.5383C144.931 16.8594 144.743 16.237 144.365 15.6712C144.026 15.0677 143.29 14.766 142.159 14.766C140.839 14.766 139.858 15.162 139.217 15.9541C138.613 16.7085 138.217 17.6326 138.029 18.7264H129.768L130.843 13.691ZM143.856 23.6486H142.838C141.744 23.6486 140.801 23.7995 140.009 24.1013C139.255 24.3653 138.632 24.7236 138.142 25.1762C137.689 25.6289 137.35 26.1381 137.124 26.7038C136.897 27.2696 136.784 27.8354 136.784 28.4011C136.784 29.3064 137.01 29.9853 137.463 30.4379C137.953 30.8906 138.519 31.1169 139.16 31.1169C139.952 31.1169 140.726 30.834 141.48 30.2682C142.272 29.7024 142.762 28.9481 142.951 28.0051L143.856 23.6486Z" fill="white"/>
<path d="M173.15 15.2186C173.942 14.4642 174.828 13.7665 175.809 13.1252C176.676 12.5972 177.695 12.1069 178.864 11.6542C180.033 11.2016 181.334 10.9753 182.768 10.9753C184.729 10.9753 186.351 11.4845 187.633 12.5029C188.916 13.4836 189.557 14.8414 189.557 16.5765C189.557 17.0668 189.5 17.6703 189.387 18.3869C189.274 19.0659 189.142 19.7825 188.991 20.5369C188.84 21.2913 188.671 22.0645 188.482 22.8566C188.331 23.6109 188.199 24.2899 188.086 24.8933L185.71 35.9259H174.225L177.336 21.1592C177.412 20.6689 177.506 20.1786 177.619 19.6882C177.732 19.1602 177.789 18.6887 177.789 18.2738C177.789 17.708 177.638 17.2554 177.336 16.9159C177.072 16.5388 176.657 16.3502 176.092 16.3502C175.413 16.3502 174.753 16.5953 174.111 17.0857C173.508 17.576 173.036 17.9909 172.697 18.3304L168.963 35.9259H157.421L162.57 11.5977H171.792L172.81 15.2186H173.15Z" fill="white"/>
<path d="M214.221 11.5977H223.387L218.747 33.6063C218.408 35.3036 217.842 36.8689 217.05 38.3022C216.258 39.7355 215.145 40.9802 213.712 42.0363C212.316 43.0924 210.544 43.9222 208.394 44.5257C206.282 45.1292 203.698 45.4309 200.643 45.4309C200.077 45.4309 199.398 45.4121 198.606 45.3744C197.814 45.3744 197.003 45.3555 196.173 45.3178C195.343 45.3178 194.551 45.2989 193.797 45.2612C193.042 45.2235 192.439 45.1858 191.986 45.1481L193.061 41.0745C194.268 41.2631 195.494 41.3574 196.739 41.3574C198.021 41.3951 199.115 41.4139 200.02 41.4139C201.152 41.4139 202.095 41.3008 202.849 41.0745C203.641 40.8859 204.283 40.5653 204.773 40.1127C205.301 39.66 205.716 39.0566 206.018 38.3022C206.357 37.5478 206.621 36.6237 206.81 35.5299L207.489 31.8524H207.092C206.866 32.1918 206.527 32.6067 206.074 33.0971C205.659 33.5497 205.112 34.0023 204.433 34.4549C203.754 34.8698 202.944 35.2282 202.001 35.5299C201.095 35.7939 200.058 35.9259 198.889 35.9259C197.569 35.9259 196.437 35.7373 195.494 35.3602C194.589 34.9453 193.853 34.3983 193.288 33.7194C192.722 33.0028 192.307 32.173 192.043 31.23C191.779 30.2493 191.647 29.1932 191.647 28.0617C191.647 27.5713 191.685 26.817 191.76 25.7986C191.835 24.7802 192.005 23.6298 192.269 22.3474C192.571 21.0649 192.986 19.7637 193.514 18.4435C194.08 17.0857 194.815 15.8598 195.72 14.766C196.663 13.6722 197.814 12.7669 199.172 12.0503C200.567 11.3336 202.246 10.9753 204.207 10.9753C204.811 10.9753 205.471 11.0319 206.187 11.145C206.904 11.2582 207.602 11.4656 208.281 11.7674C208.96 12.0691 209.563 12.5029 210.091 13.0687C210.619 13.6344 211.034 14.37 211.336 15.2752H211.675L214.221 11.5977ZM207.885 16.5199C206.979 16.5199 206.225 17.0102 205.622 17.9909C205.018 18.9339 204.528 20.0465 204.15 21.329C203.773 22.6114 203.49 23.8938 203.302 25.1762C203.151 26.4209 203.076 27.345 203.076 27.9485C203.076 28.7029 203.189 29.3441 203.415 29.8722C203.679 30.3625 204.132 30.6077 204.773 30.6077C205.15 30.6077 205.508 30.5134 205.848 30.3248C206.225 30.1362 206.564 29.9287 206.866 29.7024C207.206 29.4384 207.489 29.1744 207.715 28.9103C207.979 28.6463 208.167 28.4389 208.281 28.288L210.374 18.3869C210.072 17.972 209.714 17.5571 209.299 17.1422C208.922 16.7273 208.45 16.5199 207.885 16.5199Z" fill="white"/>
<path d="M236.18 24.5539C236.029 25.3837 235.916 26.1758 235.841 26.9301C235.803 27.6845 235.784 28.3634 235.784 28.9669C235.784 29.3064 235.803 29.6836 235.841 30.0985C235.879 30.5134 235.954 30.9094 236.067 31.2866C236.218 31.6261 236.407 31.9278 236.633 32.1918C236.897 32.4181 237.255 32.5313 237.708 32.5313C238.047 32.5313 238.425 32.4181 238.839 32.1918C239.292 31.9655 239.726 31.6449 240.141 31.23C240.593 30.8151 241.008 30.3059 241.385 29.7024C241.8 29.0989 242.121 28.42 242.347 27.6656H251.626L250.155 33.7194C249.401 34.2098 248.533 34.6247 247.552 34.9641C246.572 35.3036 245.534 35.5865 244.441 35.8128C243.347 36.0014 242.234 36.1334 241.103 36.2088C239.971 36.322 238.896 36.3786 237.878 36.3786C235.992 36.3786 234.238 36.2088 232.616 35.8694C230.994 35.5299 229.58 34.9453 228.373 34.1155C227.166 33.2857 226.204 32.1918 225.487 30.834C224.808 29.4384 224.469 27.7222 224.469 25.6854C224.469 23.8372 224.752 22.0268 225.318 20.254C225.921 18.4812 226.902 16.9159 228.26 15.5581C229.655 14.1625 231.503 13.0498 233.804 12.22C236.143 11.3902 239.047 10.9753 242.517 10.9753C246.289 10.9753 249.118 11.5599 251.004 12.7292C252.927 13.8985 253.889 15.7278 253.889 18.2172C253.889 19.2356 253.738 20.3483 253.436 21.5553C253.135 22.7245 252.682 23.7241 252.079 24.5539H236.18ZM243.705 17.8212C243.705 16.6519 243.517 15.8598 243.139 15.4449C242.762 15.03 242.31 14.8226 241.782 14.8226C241.178 14.8226 240.612 15.03 240.084 15.4449C239.594 15.8221 239.141 16.3502 238.726 17.0291C238.311 17.6703 237.934 18.4247 237.595 19.2922C237.255 20.122 236.972 21.0084 236.746 21.9513H243.196C243.271 21.4987 243.347 21.0272 243.422 20.5369C243.498 20.122 243.554 19.6694 243.592 19.179C243.667 18.6887 243.705 18.2361 243.705 17.8212Z" fill="white"/>
</svg>
