<svg width="24" height="24" viewBox="0 0 24 24" fill="none" xmlns="http://www.w3.org/2000/svg">
<path d="M17.18 5.75C17.9858 5.75 18.7952 5.90541 19.3939 6.36035C19.9666 6.79562 20.43 7.56958 20.43 9V15C20.43 16.4304 19.9666 17.2044 19.3939 17.6396C18.7952 18.0946 17.9858 18.25 17.18 18.25C16.3742 18.25 15.5648 18.0946 14.9661 17.6396C14.3934 17.2044 13.93 16.4304 13.93 15V9C13.93 7.56958 14.3934 6.79562 14.9661 6.36035C15.5648 5.90541 16.3742 5.75 17.18 5.75Z" fill="#64748B" stroke="#64748B"/>
<path d="M6.82001 5.75C7.62585 5.75 8.43519 5.90541 9.03387 6.36035C9.60664 6.79562 10.07 7.56958 10.07 9V15C10.07 16.4304 9.60664 17.2044 9.03387 17.6396C8.43519 18.0946 7.62585 18.25 6.82001 18.25C6.01417 18.25 5.20482 18.0946 4.60614 17.6396C4.03337 17.2044 3.57001 16.4304 3.57001 15V9C3.57001 7.56958 4.03337 6.79562 4.60614 6.36035C5.20482 5.90541 6.01417 5.75 6.82001 5.75Z" fill="#64748B" stroke="#64748B"/>
<path d="M12.9304 11.75V12.25H11.07V11.75H12.9304Z" fill="#64748B" stroke="#64748B"/>
<path d="M22.5 9.25C22.6339 9.25 22.75 9.36614 22.75 9.5V14.5C22.75 14.6339 22.6339 14.75 22.5 14.75C22.3661 14.75 22.25 14.6339 22.25 14.5V9.5C22.25 9.36614 22.3661 9.25 22.5 9.25Z" fill="#64748B" stroke="#64748B"/>
<path d="M1.5 9.25C1.63386 9.25 1.75 9.36614 1.75 9.5V14.5C1.75 14.6339 1.63386 14.75 1.5 14.75C1.36614 14.75 1.25 14.6339 1.25 14.5V9.5C1.25 9.36614 1.36614 9.25 1.5 9.25Z" fill="#64748B" stroke="#64748B"/>
</svg>
